<mxfile host="app.diagrams.net" modified="2022-05-31T01:17:54.685Z" agent="5.0 (Windows NT 10.0; Win64; x64) AppleWebKit/537.36 (KHTML, like Gecko) Chrome/101.0.0.0 Safari/537.36" etag="iaRFX-KlxxGWE6dqo-7h" version="18.1.3" type="github">
  <diagram id="lkMqn9DTW2YeJjpay4en" name="Page-1">
    <mxGraphModel dx="813" dy="441" grid="1" gridSize="10" guides="1" tooltips="1" connect="1" arrows="1" fold="1" page="1" pageScale="1" pageWidth="827" pageHeight="1169" math="0" shadow="0">
      <root>
        <mxCell id="0" />
        <mxCell id="1" parent="0" />
        <mxCell id="NBVEZ1uz8M24Ei40VRDX-1" value="web" style="rounded=0;whiteSpace=wrap;html=1;" vertex="1" parent="1">
          <mxGeometry x="250" y="160" width="120" height="60" as="geometry" />
        </mxCell>
        <mxCell id="NBVEZ1uz8M24Ei40VRDX-16" style="edgeStyle=orthogonalEdgeStyle;rounded=0;orthogonalLoop=1;jettySize=auto;html=1;" edge="1" parent="1" source="NBVEZ1uz8M24Ei40VRDX-15" target="NBVEZ1uz8M24Ei40VRDX-1">
          <mxGeometry relative="1" as="geometry" />
        </mxCell>
        <mxCell id="NBVEZ1uz8M24Ei40VRDX-15" value="Actor" style="shape=umlActor;verticalLabelPosition=bottom;verticalAlign=top;html=1;outlineConnect=0;" vertex="1" parent="1">
          <mxGeometry x="30" y="160" width="30" height="60" as="geometry" />
        </mxCell>
        <mxCell id="NBVEZ1uz8M24Ei40VRDX-17" value="ServerNode" style="rounded=0;whiteSpace=wrap;html=1;" vertex="1" parent="1">
          <mxGeometry x="570" y="360" width="120" height="60" as="geometry" />
        </mxCell>
        <mxCell id="NBVEZ1uz8M24Ei40VRDX-18" value="DataBase" style="rounded=0;whiteSpace=wrap;html=1;" vertex="1" parent="1">
          <mxGeometry x="260" y="360" width="120" height="60" as="geometry" />
        </mxCell>
      </root>
    </mxGraphModel>
  </diagram>
</mxfile>
